<svg xmlns="http://www.w3.org/2000/svg" width="69.4" height="74" viewBox="0 0 69.4 74">
  <g id="logo" transform="translate(0.4)">
    <path id="Path_1" data-name="Path 1" d="M51.2,0,0,19.3H0L51.2,10Z" fill="#ffe600"/>
    <path id="Path_2" data-name="Path 2" d="M34.3,27,30,35.5,25.6,27H17l9.1,15.7V52.9h7.7V42.7l9-15.7Z" fill="#fff"/>
    <path id="Path_3" data-name="Path 3" d="M7.7,42.7H17V37.3H7.7V33H18l-3.4-6H0V52.9H20.6V47H7.7Z" fill="#fff"/>
    <g id="Group_1" data-name="Group 1" transform="translate(-44 19)">
      <path id="Path_4" data-name="Path 4" d="M99.8,51.9c-.4,0-.9-.3-.9-1.6,0-1.2.5-1.4.9-1.4a1.148,1.148,0,0,1,.9.5v2A1.05,1.05,0,0,1,99.8,51.9Zm.9-3.6a1.606,1.606,0,0,0-1.1-.5c-1.2,0-2,1-2,2.6,0,1.7.7,2.7,1.9,2.7a1.606,1.606,0,0,0,1.1-.5V53h1.2V45.9l-1.2.6.1,1.8Z" fill="#fff"/>
      <path id="Path_5" data-name="Path 5" d="M95.5,46.4l1.2-.6V53H95.5Z" fill="#fff"/>
      <path id="Path_6" data-name="Path 6" d="M94.6,49.3a3.178,3.178,0,0,0-.9-.3q-.9,0-.9,1.2V53H91.6V48h1.2v.4a1.274,1.274,0,0,1,1.1-.5,1.4,1.4,0,0,1,.9.3Z" fill="#fff"/>
      <path id="Path_7" data-name="Path 7" d="M88.6,51.9c-.6,0-1-.6-1-1.5s.4-1.5,1-1.5,1,.6,1,1.5S89.2,51.9,88.6,51.9Zm0-4.1a2.62,2.62,0,1,0,2.3,2.6A2.469,2.469,0,0,0,88.6,47.8Z" fill="#fff"/>
      <path id="Path_8" data-name="Path 8" d="M84.8,47.9H86l-1.4,5H83.5l-.5-2c-.1-.4-.2-.8-.3-1.1a6.148,6.148,0,0,1-.3,1.1L81.9,53H80.8l-1.4-5h1.3l.5,1.9c.1.3.2.9.3,1.2.1-.4.2-.9.3-1.3l.5-1.9h1.1l.5,1.9c.1.3.2.9.3,1.3a13.046,13.046,0,0,0,.3-1.3Z" fill="#fff"/>
      <path id="Path_9" data-name="Path 9" d="M75.2,49.4v2a.937.937,0,0,1-.9.5c-.4,0-.9-.3-.9-1.6,0-1.2.5-1.4.9-1.4A1,1,0,0,1,75.2,49.4Zm0-1.1a1.606,1.606,0,0,0-1.1-.5c-1.2,0-2,1-2,2.6,0,1.7.7,2.7,1.9,2.7a1.606,1.606,0,0,0,1.1-.5v.1c0,.6,0,1.3-1.6,1.3h-.1l.4,1h0c1.6,0,2.4-.8,2.4-2.5V47.9H75v.4Z" fill="#fff"/>
      <path id="Path_10" data-name="Path 10" d="M68.2,53H67V48h1.2v.4a1.728,1.728,0,0,1,1.3-.5c1.2,0,1.8.8,1.8,2.3V53H70.1V50.2q0-1.2-.9-1.2t-.9,1.2V53Z" fill="#fff"/>
      <path id="Path_11" data-name="Path 11" d="M65.9,46.6v.6H64.7V46h1.2Z" fill="#fff"/>
      <path id="Path_12" data-name="Path 12" d="M64.6,47.9h1.2V53H64.6Z" fill="#fff"/>
      <path id="Path_13" data-name="Path 13" d="M62.3,49.6,63.8,53H62.4l-1.1-2.3-.7.8V53H59.4V46.5l1.2-.6v4c.2-.2.3-.5.5-.6l1-1.3h1.4Z" fill="#fff"/>
      <path id="Path_14" data-name="Path 14" d="M58.7,49.3a1.135,1.135,0,0,0-.8-.3q-.9,0-.9,1.2V53H55.8V48H57v.4a1.274,1.274,0,0,1,1.1-.5,1.4,1.4,0,0,1,.9.3Z" fill="#fff"/>
      <path id="Path_15" data-name="Path 15" d="M52.7,51.9c-.6,0-1-.6-1-1.5s.4-1.5,1-1.5,1,.6,1,1.5S53.3,51.9,52.7,51.9Zm0-4.1A2.62,2.62,0,1,0,55,50.4,2.406,2.406,0,0,0,52.7,47.8Z" fill="#fff"/>
      <path id="Path_16" data-name="Path 16" d="M48.9,47.9h1.2l-1.4,5H47.6L47,50.8c-.1-.4-.2-.8-.3-1.1a6.149,6.149,0,0,1-.3,1.1L46,52.9H45l-1.4-5h1.3l.5,1.9c.1.3.2.9.3,1.2.1-.4.2-.9.3-1.3l.5-1.9h1.1l.5,1.9c.1.3.2.9.3,1.3a13.044,13.044,0,0,0,.3-1.3Z" fill="#fff"/>
    </g>
    <g id="Group_2" data-name="Group 2" transform="translate(-44 19)">
      <path id="Path_17" data-name="Path 17" d="M112.7,40.5a1.135,1.135,0,0,0-.8-.3q-.9,0-.9,1.2v2.7h-1.2v-5H111v.4a1.274,1.274,0,0,1,1.1-.5,1.4,1.4,0,0,1,.9.3Z" fill="#fff"/>
      <path id="Path_18" data-name="Path 18" d="M105.9,41.1a.923.923,0,0,1,.9-1c.7,0,.9.5.9,1Zm2,1.6a1.333,1.333,0,0,1-1,.4,1.111,1.111,0,0,1-1.1-1.1h3.1v-.4c0-1.6-.8-2.6-2.1-2.6a2.333,2.333,0,0,0-2.2,2.6,2.317,2.317,0,0,0,2.4,2.6,2.5,2.5,0,0,0,1.8-.8Z" fill="#fff"/>
      <path id="Path_19" data-name="Path 19" d="M102.9,42.4c0,.4.2.7.5.7a1.445,1.445,0,0,0,.7-.2L104,44a1.645,1.645,0,0,1-1,.2c-1,0-1.3-.8-1.3-1.5V40.3h-.8V39.1h.8V37.8l1.2-.6v1.9H104v1.2h-1.1S102.9,42.4,102.9,42.4Z" fill="#fff"/>
      <path id="Path_20" data-name="Path 20" d="M100.5,44a1.645,1.645,0,0,1-1,.2c-1,0-1.3-.8-1.3-1.5V40.3h-.8V39.1h.8V37.8l1.2-.6v1.9h1.1v1.2H99.4v2.1c0,.4.2.7.5.7a1.445,1.445,0,0,0,.7-.2Z" fill="#fff"/>
      <path id="Path_21" data-name="Path 21" d="M93.9,41.1a.923.923,0,0,1,.9-1c.7,0,.9.5.9,1ZM96,42.7a1.333,1.333,0,0,1-1,.4A1.06,1.06,0,0,1,93.9,42H97v-.4c0-1.6-.8-2.6-2.1-2.6a2.333,2.333,0,0,0-2.2,2.6,2.317,2.317,0,0,0,2.4,2.6,2.5,2.5,0,0,0,1.8-.8Z" fill="#fff"/>
      <path id="Path_22" data-name="Path 22" d="M89.9,40.1c.5,0,.9.4.9,1.4s-.3,1.6-.9,1.6a1,1,0,0,1-.9-.5v-2A1.05,1.05,0,0,1,89.9,40.1Zm.2-1.1a1.606,1.606,0,0,0-1.1.5V37.2l-1.2.6v6.4H89v-.4a1.606,1.606,0,0,0,1.1.5c1.2,0,1.9-1,1.9-2.7C92.1,40,91.3,39,90.1,39Z" fill="#fff"/>
      <path id="Path_23" data-name="Path 23" d="M81.5,42.5c0-.4.3-.7.9-.7a2.958,2.958,0,0,1,1,.2v.7a1.1,1.1,0,0,1-1,.5C81.8,43.2,81.5,42.9,81.5,42.5Zm-.4-2.2a2.768,2.768,0,0,1,1.3-.3c.6,0,.9.2.9.7V41a3.6,3.6,0,0,0-1.1-.2c-.9,0-2,.4-2,1.7a1.75,1.75,0,0,0,1.9,1.8,1.457,1.457,0,0,0,1.2-.5v.4h1.2V40.8c0-1.1-.8-1.7-2-1.7a4.136,4.136,0,0,0-1.9.5Z" fill="#fff"/>
      <path id="Path_24" data-name="Path 24" d="M76,40.6v2a.937.937,0,0,1-.9.5c-.4,0-.9-.3-.9-1.6,0-1.2.5-1.4.9-1.4A1,1,0,0,1,76,40.6Zm0-1.1a1.606,1.606,0,0,0-1.1-.5c-1.2,0-2,1-2,2.6,0,1.7.7,2.7,1.9,2.7a1.606,1.606,0,0,0,1.1-.5v.1c0,.6,0,1.3-1.6,1.3h-.1l.4,1h0A2.194,2.194,0,0,0,77,43.7V39.1H76S76,39.5,76,39.5Z" fill="#fff"/>
      <path id="Path_25" data-name="Path 25" d="M69.1,44.1H67.9v-5h1.2v.4a1.728,1.728,0,0,1,1.3-.5c1.2,0,1.8.8,1.8,2.3v2.8H71V41.3q0-1.2-.9-1.2t-.9,1.2l-.1,2.8Z" fill="#fff"/>
      <path id="Path_26" data-name="Path 26" d="M66.7,37.8v.6H65.5V37.2h1.2Z" fill="#fff"/>
      <path id="Path_27" data-name="Path 27" d="M65.5,39.1h1.2v5H65.5Z" fill="#fff"/>
      <path id="Path_28" data-name="Path 28" d="M62.3,43.1c-.4,0-.9-.3-.9-1.6,0-1.2.5-1.4.9-1.4a1.148,1.148,0,0,1,.9.5v2C62.9,42.9,62.7,43.1,62.3,43.1Zm.8-3.6A1.606,1.606,0,0,0,62,39c-1.2,0-2,1-2,2.6,0,1.7.7,2.7,1.9,2.7a1.606,1.606,0,0,0,1.1-.5v.4h1.2V37l-1.2.6.1,1.9Z" fill="#fff"/>
      <path id="Path_29" data-name="Path 29" d="M58,37.6l1.2-.6v7.2H58Z" fill="#fff"/>
      <path id="Path_30" data-name="Path 30" d="M56.9,37.8v.6H55.7V37.2h1.2Z" fill="#fff"/>
      <path id="Path_31" data-name="Path 31" d="M56.9,40.9v3.3H55.7v-5h1.2Z" fill="#fff"/>
      <path id="Path_32" data-name="Path 32" d="M50.2,42V39.2h1.2V42q0,1.2.9,1.2t.9-1.2V39.2h1.2v5H53.2v-.4a1.656,1.656,0,0,1-1.2.5C50.4,44.3,50.2,42.8,50.2,42Z" fill="#fff"/>
      <path id="Path_33" data-name="Path 33" d="M46.9,39.9H45.3V38.4h1.5c.6,0,.9.2.9.7C47.8,39.5,47.6,39.9,46.9,39.9Zm0,3.1H45.3V41h1.6c.7,0,1,.3,1,1C48,42.6,47.6,43,46.9,43Zm2.4-1.1a1.518,1.518,0,0,0-1-1.5,1.6,1.6,0,0,0,.8-1.4c0-1.1-.8-1.8-2.1-1.8H44v6.9h2.9A2.109,2.109,0,0,0,49.3,41.9Z" fill="#fff"/>
    </g>
  </g>
</svg>
